<svg width="64" height="64" viewBox="0 0 64 64" fill="none" xmlns="http://www.w3.org/2000/svg">
<g clip-path="url(#clip0_2092_19621)">
<path fill-rule="evenodd" clip-rule="evenodd" d="M56.0331 7.94978C48.6131 0.529818 36.583 0.529818 29.163 7.94978C21.743 15.3697 21.743 27.3999 29.163 34.8198C36.583 42.2398 48.6131 42.2398 56.0331 34.8198C63.453 27.3999 63.453 15.3697 56.0331 7.94978ZM62.397 1.58582C51.4623 -9.34886 33.7337 -9.34886 22.799 1.58582C11.8644 12.5205 11.8644 30.2491 22.799 41.1838C33.7337 52.1185 51.4623 52.1185 62.397 41.1838C73.3317 30.2491 73.3317 12.5205 62.397 1.58582Z" fill="#CAF17B"/>
</g>
<path d="M49 14L49 26L37 26L37 14L49 14Z" fill="#00AAE7"/>
<path d="M14 40L24 56H4L14 40Z" fill="#00AAE7"/>
<defs>
<clipPath id="clip0_2092_19621">
<rect width="56" height="26" fill="white" transform="translate(42.598 60.9828) rotate(-135)"/>
</clipPath>
</defs>
</svg>
