<svg width="64" height="64" viewBox="0 0 64 64" fill="none" xmlns="http://www.w3.org/2000/svg">
<g clip-path="url(#clip0_2092_19902)">
<path fill-rule="evenodd" clip-rule="evenodd" d="M-15 32C-15 42.4934 -6.49341 51 4 51C14.4934 51 23 42.4934 23 32C23 21.5066 14.4934 13 4 13C-6.49341 13 -15 21.5066 -15 32ZM-24 32C-24 47.464 -11.464 60 4 60C19.464 60 32 47.464 32 32C32 16.536 19.464 4 4 4C-11.464 4 -24 16.536 -24 32Z" fill="#00AAE7"/>
</g>
<path d="M46.3137 6L57.6274 17.3137L46.3137 28.6274L35 17.3137L46.3137 6Z" fill="#CAF17B"/>
<defs>
<clipPath id="clip0_2092_19902">
<rect width="56" height="26" fill="white" transform="translate(32 4) rotate(90)"/>
</clipPath>
</defs>
</svg>
