<svg width="500" height="500" viewBox="0 0 500 500" fill="none" xmlns="http://www.w3.org/2000/svg">
<g clip-path="url(#clip0_2056_18858)">
<path d="M391.6 125.75H196.9C187.11 125.75 179.2 133.682 179.2 143.5V163.469C173.558 162.027 167.584 161.25 161.5 161.25V143.5C161.5 123.92 177.375 108 196.9 108H391.6C411.125 108 427 123.92 427 143.5V303.25C427 322.83 411.125 338.75 391.6 338.75H382.75H294.25H285.4H259.293C256.361 332.427 252.766 326.436 248.507 321H285.4V294.375C285.4 279.676 297.292 267.75 311.95 267.75H365.05C379.708 267.75 391.6 279.676 391.6 294.375V321C401.39 321 409.3 313.068 409.3 303.25V143.5C409.3 133.682 401.39 125.75 391.6 125.75ZM373.9 321V294.375C373.9 289.494 369.918 285.5 365.05 285.5H311.95C307.083 285.5 303.1 289.494 303.1 294.375V321H373.9ZM196.9 232.25C196.9 222.835 193.17 213.805 186.532 207.148C179.893 200.49 170.889 196.75 161.5 196.75C152.111 196.75 143.107 200.49 136.468 207.148C129.83 213.805 126.1 222.835 126.1 232.25C126.1 241.665 129.83 250.695 136.468 257.352C143.107 264.01 152.111 267.75 161.5 267.75C170.889 267.75 179.893 264.01 186.532 257.352C193.17 250.695 196.9 241.665 196.9 232.25ZM108.4 232.25C108.4 218.127 113.994 204.583 123.953 194.597C133.911 184.61 147.417 179 161.5 179C175.583 179 189.089 184.61 199.047 194.597C209.006 204.583 214.6 218.127 214.6 232.25C214.6 246.373 209.006 259.917 199.047 269.903C189.089 279.89 175.583 285.5 161.5 285.5C147.417 285.5 133.911 279.89 123.953 269.903C113.994 259.917 108.4 246.373 108.4 232.25ZM90.7553 374.25H232.245C230.696 344.574 206.248 321 176.268 321H146.732C116.752 321 92.3041 344.574 90.7553 374.25ZM73 377.19C73 336.365 106.022 303.25 146.732 303.25H176.213C216.978 303.25 250 336.365 250 377.19C250 385.344 243.418 392 235.232 392H87.7684C79.5822 392 73 385.399 73 377.19Z" fill="white"/>
</g>
<defs>
<clipPath id="clip0_2056_18858">
<rect width="354" height="284" fill="white" transform="translate(73 108)"/>
</clipPath>
</defs>
</svg>
