<?xml version="1.0" standalone="no"?>
<!DOCTYPE svg PUBLIC "-//W3C//DTD SVG 20010904//EN"
 "http://www.w3.org/TR/2001/REC-SVG-20010904/DTD/svg10.dtd">
<svg version="1.0" xmlns="http://www.w3.org/2000/svg"
 width="1344.000000pt" height="1344.000000pt" viewBox="0 0 1344.000000 1344.000000"
 preserveAspectRatio="xMidYMid meet">
<metadata>
Created by potrace 1.14, written by Peter Selinger 2001-2017
</metadata>
<g transform="translate(0.000000,1344.000000) scale(0.100000,-0.100000)"
fill="#000000" stroke="none">
<path d="M3119 11196 c-2 -2 -44 -7 -94 -10 -49 -4 -115 -9 -145 -12 -30 -3
-73 -7 -95 -9 -22 -2 -40 -5 -40 -5 0 -1 -13 -4 -30 -6 -16 -2 -41 -5 -55 -7
-83 -14 -126 -21 -130 -22 -3 -1 -25 -5 -50 -9 -25 -5 -54 -10 -65 -13 -11 -2
-29 -6 -41 -8 -11 -3 -65 -16 -120 -30 -54 -15 -107 -28 -117 -30 -9 -2 -21
-6 -25 -9 -5 -3 -19 -7 -33 -10 -38 -8 -220 -72 -284 -100 -31 -14 -64 -26
-71 -26 -8 0 -14 -4 -14 -10 0 -5 -3 -9 -8 -7 -10 3 -95 -35 -103 -46 -3 -5
-10 -9 -15 -9 -14 -1 -56 -20 -94 -44 -19 -11 -38 -21 -42 -20 -4 1 -15 -6
-25 -14 -10 -8 -30 -21 -45 -27 -46 -21 -262 -166 -331 -223 -283 -232 -433
-404 -633 -727 -8 -13 -11 -23 -7 -23 5 0 3 -4 -2 -8 -40 -28 -202 -427 -229
-562 -3 -14 -8 -36 -11 -50 -32 -122 -36 -187 -36 -555 -1 -209 2 -396 5 -415
13 -69 47 -206 63 -255 10 -27 18 -52 18 -55 4 -13 17 -47 26 -62 5 -10 9 -23
9 -28 0 -6 13 -38 29 -71 17 -32 27 -59 24 -59 -3 0 0 -7 7 -15 7 -8 26 -41
42 -72 46 -87 50 -94 86 -145 17 -26 32 -49 32 -52 0 -3 6 -14 14 -23 79 -98
106 -133 106 -138 0 -14 224 -242 320 -327 51 -45 173 -140 275 -215 13 -10
146 -98 195 -128 65 -42 205 -122 245 -140 22 -11 42 -21 45 -24 3 -4 21 -14
40 -23 219 -107 344 -163 500 -224 63 -25 124 -50 135 -54 49 -20 142 -53 295
-106 91 -31 177 -63 192 -70 15 -8 30 -14 33 -14 11 0 26 -5 60 -20 17 -7 33
-14 38 -15 4 -2 9 -4 12 -5 3 -1 8 -3 13 -5 4 -1 25 -10 47 -19 22 -10 54 -23
70 -29 59 -23 334 -165 361 -186 15 -11 30 -21 35 -21 12 0 138 -96 189 -144
81 -76 160 -173 160 -196 0 -5 3 -10 8 -10 14 0 80 -169 89 -230 3 -19 9 -43
14 -52 6 -10 5 -19 -1 -23 -6 -4 -7 -13 -1 -23 9 -19 7 -195 -4 -257 -17 -100
-83 -250 -144 -329 -66 -85 -260 -246 -298 -246 -6 0 -13 -4 -15 -8 -4 -10
-114 -62 -131 -62 -7 0 -18 -5 -23 -10 -6 -6 -23 -13 -39 -16 -15 -3 -36 -9
-47 -15 -10 -5 -18 -7 -18 -4 0 3 -8 1 -18 -4 -20 -10 -189 -47 -263 -57 -71
-9 -255 -25 -304 -26 -31 0 -307 13 -345 17 -42 5 -61 7 -165 19 -22 3 -51 7
-65 10 -14 3 -45 8 -70 11 -25 2 -58 7 -75 11 -16 3 -41 8 -55 10 -39 7 -51
10 -185 39 -5 1 -28 5 -50 10 -22 4 -65 14 -95 22 -30 8 -82 21 -115 29 -75
18 -90 22 -90 24 0 1 -8 3 -18 5 -23 4 -157 44 -177 52 -8 4 -17 7 -20 7 -12
2 -97 29 -115 36 -11 5 -58 22 -105 38 -47 17 -102 37 -122 46 -21 9 -38 13
-38 9 0 -5 -4 -3 -8 2 -4 6 -34 21 -67 34 -33 14 -98 43 -145 65 -47 22 -87
40 -90 41 -3 0 -9 3 -15 7 -5 3 -46 25 -90 48 -44 24 -92 52 -108 62 -21 15
-28 16 -32 6 -3 -7 -7 -146 -9 -310 -2 -163 -7 -301 -10 -306 -3 -6 -2 -13 4
-17 6 -4 7 -12 0 -24 -6 -12 -5 -22 2 -29 7 -7 8 -12 3 -12 -6 0 -11 -107 -13
-268 -5 -533 -8 -678 -16 -690 -4 -7 -3 -12 1 -12 10 0 9 -53 -2 -69 -3 -6 -2
-11 3 -11 6 0 9 -8 8 -17 -3 -40 262 -147 563 -229 30 -8 64 -16 75 -19 12 -2
21 -4 21 -5 0 -1 14 -4 30 -6 17 -3 44 -9 60 -14 34 -11 90 -22 121 -25 11 -1
25 -4 30 -8 6 -3 33 -9 60 -13 27 -3 58 -8 69 -11 74 -16 200 -37 292 -48 13
-2 42 -6 65 -10 72 -11 91 -14 153 -20 33 -3 67 -8 75 -10 8 -2 49 -6 90 -10
41 -3 93 -8 115 -10 203 -23 828 -24 991 -1 21 3 66 8 99 11 33 3 76 7 95 10
19 3 53 7 75 10 133 18 184 27 270 45 28 6 59 13 70 15 220 40 614 166 794
254 36 17 69 31 74 31 5 0 22 9 38 21 16 11 29 18 29 15 0 -4 18 5 40 19 22
14 42 25 45 25 12 0 243 147 306 195 15 11 39 29 55 40 142 101 350 313 482
489 29 39 56 76 60 81 44 56 230 405 216 405 -4 0 -1 7 6 15 7 8 9 15 4 15 -5
0 -4 4 2 8 13 8 99 265 110 327 1 6 3 12 4 15 2 6 2 9 23 115 27 136 39 250
41 377 1 43 5 78 9 78 4 0 3 9 -3 19 -7 13 -7 22 0 26 7 4 7 12 0 25 -7 13 -7
21 0 25 6 4 7 12 3 18 -4 6 -8 48 -9 92 -1 44 -5 103 -8 130 -16 140 -18 160
-21 165 -2 3 -6 23 -9 45 -4 22 -13 67 -21 100 -18 69 -26 105 -29 122 -1 7
-5 16 -9 19 -4 4 -7 18 -7 30 0 13 -4 26 -10 29 -5 3 -10 15 -10 26 0 10 -4
27 -9 37 -14 26 -34 76 -37 88 -4 20 -99 209 -106 212 -5 2 -8 9 -8 15 0 7
-28 55 -63 108 -144 218 -322 412 -537 584 -175 141 -449 319 -605 395 -16 8
-38 21 -49 30 -10 8 -20 14 -22 13 -2 -2 -55 22 -118 52 -63 30 -119 55 -125
55 -6 0 -11 5 -11 10 0 6 -6 10 -14 10 -7 0 -35 10 -62 22 -27 12 -52 21 -56
20 -5 -1 -8 3 -8 8 0 6 -6 10 -14 10 -7 0 -35 9 -62 21 -27 11 -58 24 -69 29
-18 7 -51 20 -65 25 -13 4 -47 18 -69 26 -13 5 -76 29 -140 54 -64 24 -129 49
-146 56 -16 7 -32 13 -35 14 -33 11 -198 78 -237 96 -24 10 -45 19 -49 19 -3
0 -43 18 -90 40 -47 22 -89 40 -95 40 -5 0 -9 4 -9 8 0 4 -9 8 -21 9 -11 1
-26 6 -32 12 -7 5 -61 35 -122 66 -60 31 -117 63 -126 71 -8 8 -21 14 -27 14
-7 0 -12 5 -12 10 0 6 -6 10 -13 10 -8 0 -25 10 -38 21 -13 12 -41 32 -62 46
-38 24 -160 141 -206 198 -21 25 -100 166 -101 180 0 3 -3 10 -5 17 -40 112
-41 322 -2 441 51 157 162 299 312 398 113 75 275 142 425 175 19 4 37 8 40 9
40 9 129 22 220 33 127 14 593 5 705 -13 17 -3 55 -7 85 -10 30 -3 66 -7 80
-9 14 -3 41 -7 60 -10 52 -8 139 -25 195 -37 28 -6 64 -13 80 -16 38 -7 46 -9
65 -15 16 -6 172 -47 202 -53 9 -2 26 -9 38 -15 12 -6 24 -9 27 -6 4 3 11 2
17 -3 6 -5 29 -14 51 -21 46 -13 165 -57 210 -75 17 -7 55 -23 85 -35 167 -68
384 -188 518 -287 66 -49 72 -51 73 -31 1 13 0 28 -1 33 -1 6 -1 66 0 135 1
99 0 321 -1 375 -1 6 -1 89 0 185 0 96 0 182 0 190 -1 18 0 329 0 350 0 35 1
224 1 337 0 67 0 126 1 130 8 46 -3 64 -53 90 -49 25 -200 91 -223 97 -5 2
-23 9 -40 15 -60 25 -185 69 -185 65 0 -3 -10 1 -22 7 -12 7 -45 18 -73 26
-27 8 -75 21 -105 29 -30 9 -62 17 -70 19 -8 2 -63 15 -122 29 -60 14 -111 25
-115 25 -5 -1 -11 0 -15 1 -15 5 -93 20 -128 26 -27 4 -94 15 -120 19 -14 3
-47 7 -75 11 -27 3 -66 7 -85 10 -44 6 -82 10 -190 19 -47 4 -103 9 -125 12
-50 5 -732 13 -736 9z"/>
<path d="M10820 11161 c-8 -5 -37 -12 -65 -16 -27 -5 -57 -10 -65 -12 -8 -2
-32 -5 -52 -7 -21 -3 -42 -7 -48 -11 -5 -3 -24 -8 -42 -9 -18 -2 -44 -6 -58
-10 -14 -3 -41 -8 -60 -10 -19 -3 -66 -12 -105 -20 -38 -8 -88 -17 -110 -20
-22 -4 -47 -8 -55 -11 -8 -2 -31 -6 -50 -9 -19 -3 -45 -8 -56 -10 -12 -2 -39
-7 -60 -11 -66 -10 -92 -15 -167 -31 -39 -9 -88 -17 -107 -19 -19 -2 -46 -6
-60 -9 -28 -7 -184 -36 -215 -41 -11 -2 -31 -6 -45 -9 -37 -8 -80 -16 -120
-22 -19 -3 -42 -7 -50 -9 -8 -3 -33 -7 -55 -10 -22 -3 -51 -8 -65 -12 -14 -3
-32 -7 -40 -8 -58 -9 -105 -17 -108 -20 -1 -1 -2 -51 -2 -111 1 -60 1 -118 1
-129 0 -11 0 -121 0 -245 0 -124 0 -232 0 -240 0 -8 0 -116 0 -240 0 -124 0
-232 0 -240 0 -8 0 -42 0 -75 0 -33 0 -67 0 -75 0 -8 0 -46 0 -85 1 -38 1 -77
0 -85 -1 -19 0 -181 1 -189 0 -3 0 -10 -1 -16 -1 -5 -2 -66 -1 -135 1 -69 1
-134 1 -145 -6 -96 -5 -185 2 -185 5 0 5 -4 2 -10 -3 -5 -5 -67 -5 -137 1 -71
1 -135 1 -143 0 -8 0 -46 0 -85 1 -38 1 -77 0 -85 0 -8 0 -42 0 -75 1 -33 1
-67 1 -75 -1 -8 -1 -116 -1 -240 0 -124 0 -232 0 -240 0 -8 0 -116 0 -240 0
-124 0 -232 0 -240 0 -8 0 -42 0 -75 0 -33 0 -67 0 -75 0 -8 0 -46 0 -85 1
-38 1 -77 0 -85 -1 -19 0 -181 1 -189 0 -3 0 -10 -1 -16 -1 -5 -2 -66 -1 -135
1 -69 1 -134 1 -145 -5 -79 -5 -185 -1 -185 3 0 3 -30 0 -67 -3 -38 -3 -103 0
-146 3 -43 3 -84 0 -92 -3 -8 -3 -47 0 -86 3 -39 3 -74 0 -79 -3 -5 -3 -39 0
-75 3 -36 4 -68 2 -70 -2 -2 -4 -41 -3 -87 2 -135 1 -211 -5 -220 -3 -4 -2 -8
3 -8 4 0 9 -51 9 -113 1 -96 11 -312 14 -312 2 0 7 -43 14 -115 4 -30 8 -66
10 -80 13 -79 20 -126 21 -135 1 -5 5 -26 10 -45 4 -19 9 -46 11 -58 3 -30 24
-122 31 -142 3 -8 8 -26 10 -39 2 -13 27 -90 54 -170 27 -80 51 -150 53 -156
6 -20 24 -61 66 -150 24 -49 44 -92 44 -95 1 -3 9 -16 17 -30 9 -14 40 -63 68
-110 75 -123 75 -124 87 -135 5 -5 30 -37 55 -70 51 -68 235 -256 294 -300 22
-17 46 -35 53 -42 7 -7 26 -20 42 -30 17 -9 30 -21 30 -25 0 -4 6 -8 13 -8 7
0 22 -8 33 -18 21 -18 35 -26 113 -70 104 -57 130 -69 206 -101 127 -53 153
-62 173 -67 8 -1 21 -6 30 -10 9 -4 22 -8 27 -10 6 -1 53 -14 105 -28 95 -25
133 -34 180 -41 14 -2 36 -6 50 -9 51 -10 106 -18 140 -21 19 -2 53 -6 75 -9
113 -15 300 -18 1229 -18 694 -1 1010 2 1015 10 4 8 7 1524 2 1578 -1 8 -209
12 -773 12 -425 0 -802 3 -838 6 -54 5 -127 21 -230 50 -27 8 -100 46 -153 80
-89 58 -226 203 -236 251 -1 6 -9 18 -18 27 -13 14 -63 110 -68 128 0 3 -11
32 -24 64 -21 56 -63 211 -76 281 -25 137 -36 248 -38 382 -1 51 -6 93 -10 93
-4 0 -3 9 3 19 7 13 7 22 0 26 -7 4 -7 12 0 25 7 13 7 21 0 25 -7 4 -7 13 0
26 7 12 7 19 1 19 -7 0 -7 9 -1 25 6 15 6 26 0 30 -7 4 -6 13 0 25 7 13 7 21
0 25 -6 4 -8 10 -5 16 9 13 10 93 2 106 -4 6 -3 14 3 18 6 4 7 12 1 24 -6 10
-6 23 -1 31 5 8 5 21 -1 31 -6 11 -5 20 1 24 6 4 6 15 0 30 -5 14 -6 25 -2 25
4 0 7 11 7 25 0 14 -3 25 -7 25 -4 0 -3 11 2 25 6 16 6 25 0 25 -6 0 -6 9 0
25 6 16 6 25 0 25 -6 0 -6 9 -1 23 5 12 5 32 0 45 -5 12 -5 22 -1 22 4 0 7 11
7 25 0 14 -3 25 -7 25 -4 0 -3 11 2 25 6 16 6 25 0 25 -6 0 -6 9 0 25 6 16 6
25 0 25 -6 0 -6 9 -1 23 5 13 5 30 0 39 -6 11 -5 19 1 23 7 4 7 13 0 26 -7 12
-7 19 -1 19 7 0 7 9 1 25 -5 14 -6 25 -2 25 4 0 7 14 7 30 0 17 -3 30 -7 30
-4 0 -3 11 2 25 6 16 6 25 0 25 -6 0 -6 9 0 25 6 16 6 25 -1 25 -6 0 -6 7 1
19 7 13 7 22 0 26 -7 4 -7 12 0 25 7 13 7 21 0 25 -7 4 -7 13 0 26 7 12 7 19
1 19 -7 0 -7 9 -1 25 6 15 6 26 0 30 -7 4 -6 13 0 25 7 13 7 21 0 25 -6 4 -8
10 -5 16 9 13 10 93 2 106 -4 6 -3 14 3 18 6 4 7 12 1 24 -6 10 -6 23 -1 31 5
8 5 21 -1 31 -6 11 -5 20 1 24 6 4 6 15 0 30 -5 14 -6 25 -2 25 4 0 7 11 7 25
0 14 -3 25 -7 25 -4 0 -3 11 2 25 6 16 6 25 0 25 -6 0 -6 9 0 25 6 16 6 25 0
25 -6 0 -6 9 -1 23 5 12 5 32 0 45 -5 12 -5 22 -1 22 4 0 7 11 7 25 0 14 -3
25 -7 25 -4 0 -3 11 2 25 6 16 6 25 0 25 -6 0 -6 9 0 25 6 16 6 25 0 25 -6 0
-6 9 -1 23 5 13 5 30 0 39 -6 11 -5 19 1 23 7 4 7 13 0 26 -7 12 -7 19 -1 19
7 0 7 9 1 25 -5 14 -6 25 -2 25 4 0 7 14 7 30 0 17 -3 30 -7 30 -4 0 -3 11 2
25 6 16 6 25 0 25 -6 0 -6 9 0 25 6 16 6 25 -1 25 -6 0 -6 7 1 19 7 13 7 22 0
26 -7 4 -7 12 0 25 7 13 7 21 0 25 -7 4 -7 13 0 26 7 12 7 19 1 19 -7 0 -7 9
-1 25 6 15 6 26 0 30 -7 4 -6 13 0 25 7 13 7 21 0 25 -6 4 -8 10 -5 16 9 13
10 93 2 106 -4 6 -3 14 3 18 6 4 7 12 1 24 -6 10 -6 23 -1 31 5 8 5 21 -1 31
-6 11 -5 20 1 24 6 4 6 15 0 30 -5 14 -6 25 -2 25 4 0 7 11 7 25 0 14 -3 25
-7 25 -4 0 -3 11 2 25 6 16 6 25 0 25 -6 0 -6 9 0 25 6 16 6 25 0 25 -6 0 -6
9 -1 23 5 12 5 32 0 45 -5 12 -5 22 -1 22 4 0 7 11 7 25 0 14 -3 25 -7 25 -4
0 -3 11 2 25 6 16 6 25 0 25 -6 0 -6 9 0 25 6 16 6 25 0 25 -6 0 -6 9 -1 23 5
13 5 30 0 39 -6 11 -5 19 1 23 7 4 7 13 0 26 -7 12 -7 19 -1 19 7 0 7 9 1 25
-5 14 -6 25 -2 25 4 0 7 14 7 30 0 17 -3 30 -7 30 -4 0 -3 11 2 25 6 16 6 25
0 25 -6 0 -6 9 0 25 6 16 6 25 -1 25 -6 0 -6 7 1 19 7 13 7 22 0 26 -7 4 -7
12 0 25 7 13 7 21 0 25 -7 4 -7 13 0 26 7 12 7 19 1 19 -7 0 -7 9 -1 25 6 15
6 26 0 30 -7 4 -6 13 0 25 7 13 7 21 0 25 -6 4 -8 10 -5 16 9 13 10 93 2 106
-4 6 -3 14 3 18 6 4 7 12 1 24 -6 10 -6 23 -1 31 5 8 5 21 -1 31 -6 11 -5 20
1 24 6 4 6 15 0 30 -5 14 -6 25 -2 25 4 0 7 11 7 25 0 14 -3 25 -7 25 -4 0 -3
11 2 25 6 16 6 25 0 25 -6 0 -6 9 0 25 6 16 6 25 0 25 -6 0 -6 9 -1 23 5 12 5
32 0 45 -5 12 -5 22 -1 22 4 0 7 11 7 25 0 14 -3 25 -7 25 -4 0 -3 11 2 25 6
16 6 25 0 25 -6 0 -6 9 0 25 6 16 6 25 0 25 -6 0 -6 9 -1 23 5 13 5 30 0 39
-6 11 -5 19 1 23 7 4 7 13 0 26 -7 12 -7 19 -1 19 7 0 7 9 1 25 -5 14 -6 25
-2 25 4 0 7 14 7 30 0 17 -3 30 -7 30 -4 0 -3 11 2 25 6 16 6 25 0 25 -6 0 -6
9 0 25 6 16 6 25 -1 25 -6 0 -6 7 1 19 7 13 7 22 0 26 -7 4 -7 12 0 25 7 13 7
21 0 25 -7 4 -7 13 0 26 7 12 7 19 1 19 -7 0 -7 9 -1 25 6 15 6 26 0 30 -7 4
-6 13 0 25 7 13 7 21 0 25 -6 4 -8 10 -5 16 9 13 10 93 2 106 -4 6 -3 14 3 18
6 4 7 12 1 24 -6 10 -6 23 -1 31 5 8 5 21 -1 31 -6 11 -5 20 1 24 6 4 6 15 0
30 -6 15 -6 25 0 25 5 0 5 12 0 30 -5 18 -5 32 1 35 5 4 5 14 -1 25 -7 13 -7
21 0 25 7 4 8 11 1 18 -9 11 -11 18 -11 32 0 3 -10 1 -21 -6 -15 -8 -19 -8
-15 0 8 13 6 13 -14 2z"/>
<path d="M6550 7872 l-55 -3 0 -811 0 -811 23 -8 c12 -5 22 -4 22 0 0 5 8 7
18 5 28 -7 232 -10 232 -3 0 4 17 3 38 0 39 -7 91 -6 99 3 3 3 15 1 27 -3 11
-5 30 -5 40 -1 11 3 39 3 63 0 24 -4 46 -4 48 0 3 5 20 4 39 0 19 -4 38 -5 41
-2 3 4 24 5 46 3 82 -6 199 -6 199 0 0 4 17 3 38 0 20 -4 48 -5 62 -4 22 3 41
3 83 2 6 0 44 1 82 1 39 1 75 1 80 0 6 -1 35 -1 65 0 30 0 60 1 65 1 6 0 42
-1 80 -1 39 -1 87 -1 107 -1 l37 1 0 815 c1 641 -2 815 -12 816 -46 2 -1523 3
-1567 1z"/>
</g>
</svg>
